HIERARCHY
ROOT joint_0
{
	OFFSET 0.000000 0.000000 0.000000
	CHANNELS 6 Xposition Yposition Zposition Zrotation Yrotation Xrotation 
	JOINT joint_1
	{
		OFFSET 6.590088 -1.122192 114.019043
		CHANNELS 3 Zrotation Yrotation Xrotation
		JOINT joint_2
		{
			OFFSET -5.956055 -0.820435 104.151001
			CHANNELS 3 Zrotation Yrotation Xrotation
			JOINT joint_3
			{
				OFFSET -7.343506 -1.103027 103.942993
				CHANNELS 3 Zrotation Yrotation Xrotation
				JOINT joint_4
				{
					OFFSET 3.109131 -2.857056 147.715942
					CHANNELS 3 Zrotation Yrotation Xrotation
					JOINT joint_5
					{
						OFFSET 28.592285 -2.852295 87.703979
						CHANNELS 3 Zrotation Yrotation Xrotation
						End Site
						{
							OFFSET 0.000000 0.000000 0.000000
						}
					}
				}
				JOINT joint_6
				{
					OFFSET -0.332520 -33.687378 82.401978
					CHANNELS 3 Zrotation Yrotation Xrotation
					JOINT joint_7
					{
						OFFSET -7.397461 -168.719177 -22.750977
						CHANNELS 3 Zrotation Yrotation Xrotation
						JOINT joint_8
						{
							OFFSET 17.065918 -24.903137 -272.721069
							CHANNELS 3 Zrotation Yrotation Xrotation
							JOINT joint_9
							{
								OFFSET 33.311279 -37.031616 -278.192993
								CHANNELS 3 Zrotation Yrotation Xrotation
								End Site
								{
									OFFSET 0.000000 0.000000 0.000000
								}
							}
						}
					}
				}
				JOINT joint_10
				{
					OFFSET 3.914307 30.461670 83.552979
					CHANNELS 3 Zrotation Yrotation Xrotation
					JOINT joint_11
					{
						OFFSET 15.543701 166.845459 -30.963013
						CHANNELS 3 Zrotation Yrotation Xrotation
						JOINT joint_12
						{
							OFFSET 35.734863 35.017700 -269.786011
							CHANNELS 3 Zrotation Yrotation Xrotation
							JOINT joint_13
							{
								OFFSET 70.506592 13.977783 -273.320007
								CHANNELS 3 Zrotation Yrotation Xrotation
								End Site
								{
									OFFSET 0.000000 0.000000 0.000000
								}
							}
						}
					}
				}
			}
		}
	}
	JOINT joint_14
	{
		OFFSET -0.314697 -95.093994 -116.004028
		CHANNELS 3 Zrotation Yrotation Xrotation
		JOINT joint_15
		{
			OFFSET -22.490723 2.017883 -455.510986
			CHANNELS 3 Zrotation Yrotation Xrotation
			JOINT joint_16
			{
				OFFSET -46.427490 7.144104 -496.360985
				CHANNELS 3 Zrotation Yrotation Xrotation
				JOINT joint_17
				{
					OFFSET 209.055420 -37.122803 -85.191002
					CHANNELS 3 Zrotation Yrotation Xrotation
					End Site
					{
						OFFSET 0.000000 0.000000 0.000000
					}
				}
			}
		}
	}
	JOINT joint_18
	{
		OFFSET 5.652832 94.642578 -116.244019
		CHANNELS 3 Zrotation Yrotation Xrotation
		JOINT joint_19
		{
			OFFSET -12.379883 -7.332642 -455.843994
			CHANNELS 3 Zrotation Yrotation Xrotation
			JOINT joint_20
			{
				OFFSET -45.227051 -8.172241 -496.457985
				CHANNELS 3 Zrotation Yrotation Xrotation
				JOINT joint_21
				{
					OFFSET 210.522949 -11.530396 -88.809004
					CHANNELS 3 Zrotation Yrotation Xrotation
					End Site
					{
						OFFSET 0.000000 0.000000 0.000000
					}
				}
			}
		}
	}
}
MOTION
Frames: 18
Frame Time: 0.016667
-2654.707764 837.519409 1183.322998 5.640987 0.648527 0.528910 0.269296 0.033083 -0.642613 0.313844 -0.028341 0.146378 0.296624 0.033833 -0.107849 0.060302 1.833751 -0.042528 0.000000 0.000000 0.000000 1.505045 1.281881 1.921620 -0.160520 1.538026 1.331620 -0.311692 2.917425 1.039914 0.000000 0.000000 0.000000 2.788721 0.785249 0.799360 -0.326895 0.511281 -2.300182 1.601128 7.369580 5.395912 0.000000 0.000000 0.000000 -0.366788 -1.446161 -0.628640 -0.353092 0.967267 -0.685793 -0.416267 1.345301 0.069366 0.000000 0.000000 0.000000 0.237146 -2.127750 1.546125 0.228966 -0.870792 1.267837 0.262057 3.136495 0.281533 0.000000 0.000000 0.000000 
-2654.305176 837.751831 1183.347046 5.651312 0.614097 0.552571 0.269086 0.019765 -0.656838 0.314658 -0.026450 0.149190 0.297173 0.033521 -0.108356 0.061599 1.815556 -0.047314 0.000000 0.000000 0.000000 1.503704 1.264953 1.974967 -0.162294 1.526757 1.260501 -0.308583 2.905231 1.050592 0.000000 0.000000 0.000000 2.780879 0.784234 0.760118 -0.330315 0.503662 -2.262007 1.567507 7.317089 5.253827 0.000000 0.000000 0.000000 -0.364278 -1.408373 -0.659400 -0.351357 1.017017 -0.697597 -0.416056 1.303731 0.062066 0.000000 0.000000 0.000000 0.243213 -2.087226 1.483181 0.231916 -0.828124 1.308109 0.270063 3.093376 0.282540 0.000000 0.000000 0.000000 
-2653.907471 837.978088 1183.353027 5.663757 0.582981 0.574156 0.268548 0.004389 -0.666897 0.314821 -0.024879 0.150383 0.297220 0.032810 -0.108378 0.062569 1.799367 -0.050945 0.000000 0.000000 0.000000 1.503900 1.248921 2.026832 -0.164398 1.516460 1.191753 -0.306393 2.898476 1.060827 0.000000 0.000000 0.000000 2.771112 0.783935 0.721736 -0.334868 0.497551 -2.229453 1.533505 7.267407 5.110089 0.000000 0.000000 0.000000 -0.362406 -1.373558 -0.687670 -0.350156 1.065440 -0.708925 -0.416292 1.262177 0.054586 0.000000 0.000000 0.000000 0.248638 -2.047898 1.422810 0.234368 -0.790545 1.348398 0.277570 3.049332 0.283287 0.000000 0.000000 0.000000 
-2653.513672 838.202209 1183.324951 5.679360 0.557808 0.592583 0.266508 -0.017070 -0.671934 0.313190 -0.022219 0.150947 0.295482 0.030884 -0.108507 0.063580 1.787448 -0.054391 0.000000 0.000000 0.000000 1.508972 1.234032 2.076149 -0.166866 1.507812 1.124647 -0.304954 2.896386 1.071075 0.000000 0.000000 0.000000 2.763090 0.784779 0.685703 -0.341042 0.492821 -2.203314 1.498024 7.219888 4.959963 0.000000 0.000000 0.000000 -0.361883 -1.342326 -0.712656 -0.350204 1.108630 -0.719227 -0.417579 1.220937 0.046734 0.000000 0.000000 0.000000 0.251441 -2.011640 1.365723 0.234349 -0.760022 1.389360 0.282711 3.004264 0.282986 0.000000 0.000000 0.000000 
-2653.124756 838.420166 1183.279053 5.697996 0.535849 0.608958 0.264045 -0.040339 -0.673349 0.310925 -0.019487 0.151238 0.293073 0.027351 -0.109183 0.064182 1.778429 -0.056366 0.000000 0.000000 0.000000 1.514385 1.220340 2.124288 -0.169696 1.500296 1.059873 -0.304483 2.899922 1.080667 0.000000 0.000000 0.000000 2.751926 0.786845 0.650794 -0.348155 0.490373 -2.182708 1.462111 7.174112 4.808102 0.000000 0.000000 0.000000 -0.362407 -1.313867 -0.735161 -0.351198 1.150438 -0.729044 -0.419711 1.179824 0.038560 0.000000 0.000000 0.000000 0.253226 -1.976572 1.311303 0.233465 -0.734607 1.430103 0.286967 2.958520 0.282276 0.000000 0.000000 0.000000 
-2652.727051 838.621399 1183.228027 5.717061 0.516274 0.623105 0.261145 -0.068644 -0.672916 0.308121 -0.016086 0.151096 0.290163 0.024524 -0.109751 0.064766 1.773843 -0.057980 0.000000 0.000000 0.000000 1.519823 1.206491 2.171246 -0.172966 1.492348 1.001209 -0.306024 2.913558 1.086405 0.000000 0.000000 0.000000 2.739419 0.790580 0.616781 -0.355354 0.490930 -2.172955 1.431362 7.136887 4.678507 0.000000 0.000000 0.000000 -0.362932 -1.288260 -0.754830 -0.352107 1.193216 -0.737498 -0.421647 1.139566 0.030617 0.000000 0.000000 0.000000 0.254023 -1.941759 1.263399 0.231989 -0.712971 1.466011 0.290155 2.912802 0.281119 0.000000 0.000000 0.000000 
-2652.313721 838.796143 1183.172974 5.736462 0.497989 0.634193 0.257530 -0.101856 -0.671172 0.304549 -0.010960 0.150669 0.286511 0.018651 -0.109438 0.066217 1.776907 -0.061697 0.000000 0.000000 0.000000 1.526653 1.191837 2.216233 -0.177364 1.483373 0.952851 -0.311909 2.946993 1.081118 0.000000 0.000000 0.000000 2.725248 0.797422 0.583423 -0.362163 0.496214 -2.175814 1.407656 7.110622 4.578920 0.000000 0.000000 0.000000 -0.363403 -1.264634 -0.769653 -0.352727 1.238199 -0.745694 -0.423295 1.099707 0.022863 0.000000 0.000000 0.000000 0.253467 -1.903677 1.224991 0.229819 -0.698524 1.494699 0.291923 2.866256 0.279321 0.000000 0.000000 0.000000 
-2651.891602 838.953186 1183.113037 5.757264 0.481976 0.643147 0.253481 -0.140366 -0.668286 0.300540 -0.003571 0.150502 0.282368 0.011568 -0.109035 0.067449 1.786120 -0.064312 0.000000 0.000000 0.000000 1.531688 1.177250 2.259981 -0.182242 1.473940 0.910680 -0.319920 2.991372 1.072202 0.000000 0.000000 0.000000 2.708649 0.806094 0.550806 -0.368890 0.504869 -2.189410 1.389251 7.092954 4.501755 0.000000 0.000000 0.000000 -0.364083 -1.243654 -0.781608 -0.353456 1.284166 -0.752814 -0.424957 1.060689 0.015253 0.000000 0.000000 0.000000 0.251678 -1.865967 1.192978 0.226799 -0.687692 1.518601 0.292375 2.819777 0.276974 0.000000 0.000000 0.000000 
-2651.480225 839.103821 1183.057007 5.777283 0.465551 0.651983 0.249689 -0.172550 -0.664325 0.296652 0.000928 0.149654 0.278424 0.006860 -0.109139 0.067466 1.796240 -0.063210 0.000000 0.000000 0.000000 1.529423 1.164179 2.305762 -0.185833 1.465108 0.865634 -0.324469 3.023760 1.077019 0.000000 0.000000 0.000000 2.692716 0.815095 0.519411 -0.374980 0.515101 -2.215002 1.376972 7.079171 4.450946 0.000000 0.000000 0.000000 -0.364543 -1.224237 -0.795320 -0.354248 1.331943 -0.755584 -0.426312 1.024259 0.008229 0.000000 0.000000 0.000000 0.250991 -1.833560 1.163607 0.224875 -0.667874 1.537940 0.293527 2.774796 0.275004 0.000000 0.000000 0.000000 
-2651.093018 839.251709 1183.010986 5.797783 0.446505 0.661248 0.246079 -0.191343 -0.661250 0.292946 0.001624 0.149211 0.274785 0.005588 -0.108312 0.065700 1.807114 -0.056685 0.000000 0.000000 0.000000 1.523276 1.151624 2.355040 -0.187723 1.456623 0.811734 -0.323799 3.039281 1.104612 0.000000 0.000000 0.000000 2.677237 0.821856 0.488750 -0.380799 0.524958 -2.259920 1.373088 7.070299 4.436179 0.000000 0.000000 0.000000 -0.365019 -1.204726 -0.813438 -0.355639 1.381462 -0.750644 -0.427579 0.992222 0.002021 0.000000 0.000000 0.000000 0.250821 -1.808537 1.137097 0.223395 -0.633000 1.550982 0.294611 2.733503 0.273206 0.000000 0.000000 0.000000 
-2650.714600 839.394287 1182.968994 5.818409 0.427607 0.670502 0.242564 -0.206293 -0.656784 0.289128 0.001588 0.146912 0.271245 0.006060 -0.106774 0.062796 1.820397 -0.046574 0.000000 0.000000 0.000000 1.509419 1.140694 2.405910 -0.188334 1.448791 0.754590 -0.319639 3.043260 1.146770 0.000000 0.000000 0.000000 2.661843 0.829056 0.458676 -0.386012 0.536499 -2.316308 1.375142 7.065609 4.446789 0.000000 0.000000 0.000000 -0.365438 -1.187002 -0.833532 -0.357266 1.432454 -0.741305 -0.428696 0.962725 -0.003673 0.000000 0.000000 0.000000 0.251439 -1.789459 1.112825 0.222664 -0.589153 1.559894 0.296109 2.693636 0.271661 0.000000 0.000000 0.000000 
-2650.320557 839.526367 1182.920044 5.834771 0.412655 0.682206 0.238370 -0.229143 -0.655346 0.284981 0.003344 0.146717 0.267134 0.004509 -0.105916 0.060411 1.837083 -0.037959 0.000000 0.000000 0.000000 1.474485 1.137600 2.450559 -0.186958 1.445041 0.705701 -0.311311 3.026228 1.195245 0.000000 0.000000 0.000000 2.653063 0.843099 0.428930 -0.389834 0.553139 -2.364009 1.376868 7.062110 4.455902 0.000000 0.000000 0.000000 -0.364410 -1.174142 -0.853971 -0.357273 1.485519 -0.735098 -0.428533 0.930738 -0.009289 0.000000 0.000000 0.000000 0.256218 -1.773820 1.084263 0.225846 -0.543752 1.570174 0.301615 2.650356 0.271611 0.000000 0.000000 0.000000 
-2649.893555 839.653564 1182.862061 5.842916 0.405678 0.697416 0.235500 -0.267832 -0.657147 0.282499 0.008049 0.147434 0.264461 0.000780 -0.106480 0.057573 1.858201 -0.027814 0.000000 0.000000 0.000000 1.408655 1.143019 2.488994 -0.183724 1.444638 0.667148 -0.299632 2.992757 1.248739 0.000000 0.000000 0.000000 2.648602 0.865181 0.396992 -0.392146 0.575161 -2.391065 1.375190 7.061742 4.450040 0.000000 0.000000 0.000000 -0.360439 -1.165888 -0.873877 -0.353934 1.533351 -0.736598 -0.425774 0.896678 -0.014215 0.000000 0.000000 0.000000 0.268227 -1.760648 1.045793 0.235799 -0.503419 1.587412 0.314357 2.602990 0.274375 0.000000 0.000000 0.000000 
-2649.450195 839.771240 1182.796997 5.846498 0.402523 0.715025 0.232466 -0.314137 -0.660749 0.280060 0.014578 0.148838 0.261661 -0.006068 -0.107954 0.054916 1.884855 -0.017983 0.000000 0.000000 0.000000 1.320173 1.156508 2.521624 -0.178601 1.448379 0.636758 -0.283958 2.939417 1.308893 0.000000 0.000000 0.000000 2.649902 0.894296 0.365917 -0.393067 0.602664 -2.409267 1.373096 7.062874 4.442290 0.000000 0.000000 0.000000 -0.355020 -1.162406 -0.894192 -0.348985 1.583347 -0.741035 -0.421732 0.860097 -0.019067 0.000000 0.000000 0.000000 0.284484 -1.750706 1.003114 0.249763 -0.461444 1.605907 0.331198 2.551987 0.278660 0.000000 0.000000 0.000000 
-2649.023193 839.866394 1182.724976 5.852489 0.397632 0.732567 0.224568 -0.361404 -0.661409 0.272570 0.021582 0.149504 0.253977 -0.011707 -0.107892 0.054485 1.911676 -0.015101 0.000000 0.000000 0.000000 1.222871 1.180305 2.544090 -0.170579 1.459988 0.615729 -0.261026 2.842693 1.373073 0.000000 0.000000 0.000000 2.663830 0.930140 0.341317 -0.392390 0.635900 -2.432220 1.373115 7.057720 4.444191 0.000000 0.000000 0.000000 -0.351443 -1.170793 -0.915568 -0.345963 1.657051 -0.740822 -0.419316 0.817451 -0.025657 0.000000 0.000000 0.000000 0.298882 -1.749235 0.967195 0.261925 -0.402299 1.616210 0.345880 2.494154 0.281667 0.000000 0.000000 0.000000 
-2648.625488 839.940613 1182.647949 5.861090 0.389545 0.748553 0.212238 -0.404975 -0.657017 0.260409 0.029316 0.151112 0.241403 -0.019309 -0.109565 0.056099 1.941826 -0.018345 0.000000 0.000000 0.000000 1.125298 1.215739 2.559156 -0.159816 1.482140 0.603506 -0.230324 2.696549 1.439064 0.000000 0.000000 0.000000 2.689447 0.972185 0.325456 -0.390213 0.675010 -2.463079 1.376334 7.047584 4.460244 0.000000 0.000000 0.000000 -0.348641 -1.192680 -0.938246 -0.343901 1.758815 -0.733441 -0.417386 0.769545 -0.033379 0.000000 0.000000 0.000000 0.309802 -1.757776 0.941446 0.270722 -0.321482 1.616785 0.356846 2.427883 0.282651 0.000000 0.000000 0.000000 
-2648.242920 839.992249 1182.562988 5.871963 0.379961 0.764271 0.195605 -0.450275 -0.649318 0.243754 0.038329 0.152090 0.224423 -0.027138 -0.110320 0.059699 1.974229 -0.027652 0.000000 0.000000 0.000000 1.016849 1.261941 2.564065 -0.146443 1.512389 0.600607 -0.192677 2.507918 1.509800 0.000000 0.000000 0.000000 2.726402 1.021032 0.316847 -0.386590 0.720257 -2.499167 1.381738 7.032384 4.486163 0.000000 0.000000 0.000000 -0.347677 -1.226658 -0.961611 -0.343725 1.884353 -0.721555 -0.417013 0.715433 -0.042835 0.000000 0.000000 0.000000 0.318991 -1.774750 0.922721 0.277863 -0.223817 1.609025 0.365815 2.354317 0.282398 0.000000 0.000000 0.000000 
-2647.873047 840.000488 1182.465942 5.887838 0.364042 0.781806 0.170331 -0.495121 -0.639535 0.218148 0.048416 0.149288 0.198974 -0.036814 -0.107547 0.064282 2.013469 -0.039730 0.000000 0.000000 0.000000 0.880991 1.320552 2.552859 -0.129770 1.549731 0.608121 -0.146699 2.270848 1.589963 0.000000 0.000000 0.000000 2.784108 1.082294 0.318182 -0.379960 0.775989 -2.540263 1.388072 6.998325 4.517931 0.000000 0.000000 0.000000 -0.353702 -1.272038 -0.985500 -0.350528 2.043200 -0.705181 -0.423139 0.651742 -0.056640 0.000000 0.000000 0.000000 0.326314 -1.794834 0.911429 0.283421 -0.110197 1.589317 0.372458 2.276319 0.280926 0.000000 0.000000 0.000000 
